<svg width="21" height="18" viewBox="0 0 21 18" fill="none" xmlns="http://www.w3.org/2000/svg">
<path fill-rule="evenodd" clip-rule="evenodd" d="M5.69095 1.5L7.1994 0V2.86364H5.69095V1.5ZM14.6045 1.5L13.0961 0V2.86364H14.6045V1.5Z" fill="#7B7B7B"/>
<path d="M7.1994 0H13.0961V1.43182H7.1994L7.1994 0Z" fill="#5A5A5A"/>
<path fill-rule="evenodd" clip-rule="evenodd" d="M18.6499 18H1.64558C1.20914 18 0.790584 17.8276 0.481978 17.5207C0.173373 17.2138 0 16.7976 0 16.3636V5.67532L2.82751 2.86364H17.4679L20.2955 5.67532V16.3636C20.2955 16.7976 20.1221 17.2138 19.8135 17.5207C19.5049 17.8276 19.0863 18 18.6499 18Z" fill="#E6E7E8"/>
<path fill-rule="evenodd" clip-rule="evenodd" d="M0 8.65909V5.67532L2.82751 2.86364H17.4679L20.2955 5.67532V8.65909H0Z" fill="#D0D1D2"/>
<path fill-rule="evenodd" clip-rule="evenodd" d="M2.33123 18V6.40909C2.33123 6.22826 2.40347 6.05484 2.53206 5.92697C2.66064 5.79911 2.83504 5.72727 3.01689 5.72727H17.2786C17.4604 5.72727 17.6348 5.79911 17.7634 5.92697C17.892 6.05484 17.9642 6.22826 17.9642 6.40909V18H2.33123Z" fill="#458CF5"/>
<path d="M2.33123 8.65909H17.9642V18H2.33123L2.33123 8.65909Z" fill="white"/>
<path fill-rule="evenodd" clip-rule="evenodd" d="M13.3017 18V15.2045L11.9304 13.8409L11.0391 11.3864L11.6562 9.81818L15.153 13.2955L15.7701 10.7045L17.9642 12.8864V18L13.3017 18Z" fill="#D2D3D4"/>
<path d="M3.35972 9.75H8.57071V15.5455H3.35972V9.75ZM3.35972 16.8409H10.0792V18H3.35972V16.8409Z" fill="#D2D3D4"/>
<path fill-rule="evenodd" clip-rule="evenodd" d="M14.6045 15.825V18H11.7247V15.8559C11.1376 15.5902 10.6388 15.1636 10.2867 14.6262C9.9346 14.0888 9.74377 13.4627 9.73657 12.8213C9.72938 12.1799 9.90611 11.5497 10.2461 11.0046C10.5861 10.4595 11.0752 10.022 11.6562 9.74332V12.9545L13.0961 13.8409L14.6045 12.9545V9.74318C15.1798 10.0191 15.6651 10.4509 16.0048 10.9888C16.3444 11.5267 16.5246 12.1489 16.5246 12.7841C16.5246 13.4192 16.3444 14.0415 16.0048 14.5794C15.6651 15.1173 15.1798 15.549 14.6045 15.825Z" fill="#505050"/>
<path fill-rule="evenodd" clip-rule="evenodd" d="M3.94253 6.47727C4.0578 6.47727 4.17048 6.51126 4.26632 6.57494C4.36216 6.63862 4.43686 6.72914 4.48097 6.83504C4.52508 6.94093 4.53663 7.05746 4.51414 7.16988C4.49165 7.2823 4.43614 7.38557 4.35464 7.46662C4.27313 7.54767 4.16928 7.60287 4.05623 7.62523C3.94318 7.64759 3.82599 7.63611 3.7195 7.59225C3.613 7.54838 3.52198 7.4741 3.45794 7.3788C3.3939 7.28349 3.35972 7.17144 3.35972 7.05682C3.35972 6.90311 3.42112 6.7557 3.53042 6.64702C3.63972 6.53833 3.78796 6.47727 3.94253 6.47727ZM5.65667 6.47727C5.77194 6.47727 5.88462 6.51126 5.98046 6.57494C6.07631 6.63862 6.15101 6.72914 6.19512 6.83504C6.23923 6.94093 6.25077 7.05746 6.22828 7.16988C6.20579 7.2823 6.15029 7.38557 6.06878 7.46662C5.98727 7.54767 5.88343 7.60287 5.77037 7.62523C5.65732 7.64759 5.54014 7.63611 5.43364 7.59225C5.32715 7.54838 5.23612 7.4741 5.17208 7.3788C5.10804 7.28349 5.07386 7.17144 5.07386 7.05682C5.07386 6.90311 5.13527 6.7557 5.24456 6.64702C5.35386 6.53833 5.5021 6.47727 5.65667 6.47727Z" fill="#E6E7E8"/>
</svg>
