<svg width="14" height="14" viewBox="0 0 14 14" fill="none" xmlns="http://www.w3.org/2000/svg">
<path fill-rule="evenodd" clip-rule="evenodd" d="M1.75 3.28125C1.75 2.91881 2.04381 2.625 2.40625 2.625H11.5938C11.9562 2.625 12.25 2.91881 12.25 3.28125C12.25 3.64369 11.9562 3.9375 11.5938 3.9375H2.40625C2.04381 3.9375 1.75 3.64369 1.75 3.28125ZM1.75 7C1.75 6.63756 2.04381 6.34375 2.40625 6.34375H11.5938C11.9562 6.34375 12.25 6.63756 12.25 7C12.25 7.36244 11.9562 7.65625 11.5938 7.65625H2.40625C2.04381 7.65625 1.75 7.36244 1.75 7ZM1.75 10.7188C1.75 10.3563 2.04381 10.0625 2.40625 10.0625H6.34375C6.70619 10.0625 7 10.3563 7 10.7188C7 11.0812 6.70619 11.375 6.34375 11.375H2.40625C2.04381 11.375 1.75 11.0812 1.75 10.7188Z" fill="#282A30" fill-opacity="0.65"/>
</svg>
